<svg id="visual" viewBox="0 0 900 600" width="900" height="600" xmlns="http://www.w3.org/2000/svg" xmlns:xlink="http://www.w3.org/1999/xlink" version="1.1"><rect x="0" y="0" width="900" height="600" fill="#eb3b5a"></rect><path d="M0 397L15 400.7C30 404.3 60 411.7 90 403.2C120 394.7 150 370.3 180 369C210 367.7 240 389.3 270 393.3C300 397.3 330 383.7 360 384C390 384.3 420 398.7 450 400.7C480 402.7 510 392.3 540 391.7C570 391 600 400 630 404.3C660 408.7 690 408.3 720 405.5C750 402.7 780 397.3 810 391.8C840 386.3 870 380.7 885 377.8L900 375L900 601L885 601C870 601 840 601 810 601C780 601 750 601 720 601C690 601 660 601 630 601C600 601 570 601 540 601C510 601 480 601 450 601C420 601 390 601 360 601C330 601 300 601 270 601C240 601 210 601 180 601C150 601 120 601 90 601C60 601 30 601 15 601L0 601Z" fill="#00274e"></path><path d="M0 422L15 426.5C30 431 60 440 90 442C120 444 150 439 180 436.3C210 433.7 240 433.3 270 436C300 438.7 330 444.3 360 436.7C390 429 420 408 450 406.8C480 405.7 510 424.3 540 428C570 431.7 600 420.3 630 416.2C660 412 690 415 720 417.5C750 420 780 422 810 421C840 420 870 416 885 414L900 412L900 601L885 601C870 601 840 601 810 601C780 601 750 601 720 601C690 601 660 601 630 601C600 601 570 601 540 601C510 601 480 601 450 601C420 601 390 601 360 601C330 601 300 601 270 601C240 601 210 601 180 601C150 601 120 601 90 601C60 601 30 601 15 601L0 601Z" fill="#002240"></path><path d="M0 474L15 469C30 464 60 454 90 445.7C120 437.3 150 430.7 180 428.5C210 426.3 240 428.7 270 437.2C300 445.7 330 460.3 360 460.3C390 460.3 420 445.7 450 442.3C480 439 510 447 540 446.2C570 445.3 600 435.7 630 431.2C660 426.7 690 427.3 720 427.7C750 428 780 428 810 427.2C840 426.3 870 424.7 885 423.8L900 423L900 601L885 601C870 601 840 601 810 601C780 601 750 601 720 601C690 601 660 601 630 601C600 601 570 601 540 601C510 601 480 601 450 601C420 601 390 601 360 601C330 601 300 601 270 601C240 601 210 601 180 601C150 601 120 601 90 601C60 601 30 601 15 601L0 601Z" fill="#021c32"></path><path d="M0 481L15 483C30 485 60 489 90 490C120 491 150 489 180 488.2C210 487.3 240 487.7 270 483.5C300 479.3 330 470.7 360 470.5C390 470.3 420 478.7 450 478.2C480 477.7 510 468.3 540 468.5C570 468.7 600 478.3 630 482.8C660 487.3 690 486.7 720 491.2C750 495.7 780 505.3 810 507.5C840 509.7 870 504.3 885 501.7L900 499L900 601L885 601C870 601 840 601 810 601C780 601 750 601 720 601C690 601 660 601 630 601C600 601 570 601 540 601C510 601 480 601 450 601C420 601 390 601 360 601C330 601 300 601 270 601C240 601 210 601 180 601C150 601 120 601 90 601C60 601 30 601 15 601L0 601Z" fill="#051624"></path><path d="M0 513L15 518.5C30 524 60 535 90 534.5C120 534 150 522 180 521.7C210 521.3 240 532.7 270 530.5C300 528.3 330 512.7 360 504C390 495.3 420 493.7 450 495.8C480 498 510 504 540 507.5C570 511 600 512 630 512.5C660 513 690 513 720 511.2C750 509.3 780 505.7 810 504.5C840 503.3 870 504.7 885 505.3L900 506L900 601L885 601C870 601 840 601 810 601C780 601 750 601 720 601C690 601 660 601 630 601C600 601 570 601 540 601C510 601 480 601 450 601C420 601 390 601 360 601C330 601 300 601 270 601C240 601 210 601 180 601C150 601 120 601 90 601C60 601 30 601 15 601L0 601Z" fill="#030e18"></path><path d="M0 544L15 550.3C30 556.7 60 569.3 90 571.5C120 573.7 150 565.3 180 563.2C210 561 240 565 270 566.5C300 568 330 567 360 565.5C390 564 420 562 450 558.3C480 554.7 510 549.3 540 549.7C570 550 600 556 630 562.2C660 568.3 690 574.7 720 571.7C750 568.7 780 556.3 810 554.2C840 552 870 560 885 564L900 568L900 601L885 601C870 601 840 601 810 601C780 601 750 601 720 601C690 601 660 601 630 601C600 601 570 601 540 601C510 601 480 601 450 601C420 601 390 601 360 601C330 601 300 601 270 601C240 601 210 601 180 601C150 601 120 601 90 601C60 601 30 601 15 601L0 601Z" fill="#000306"></path></svg>